<svg width="1071" height="938" viewBox="0 0 1071 938" fill="none" xmlns="http://www.w3.org/2000/svg">
<path d="M830.46 0H237.21V593.25H830.46V0Z" fill="#F4F3F2"/>
<path d="M705.19 279.22H705.2C696.38 195.5 625.57 130.26 539.51 130.26H374.45C364.56 130.26 358.36 140.94 363.25 149.53L425.37 258.59C433.04 270.96 446.75 279.21 462.38 279.21H470.17V220.91V204.99H526.03V205.2C568.79 207.15 603.91 238.33 611.78 279.26C612.86 284.88 613.45 290.69 613.45 296.63C613.45 302.57 612.84 308.41 611.75 314.05H611.76C603.87 354.95 568.77 386.1 526.03 388.05V388.26H470.17V372.34V314.04H462.38C446.75 314.04 433.05 322.28 425.37 334.66L363.25 443.72C358.36 452.31 364.56 462.99 374.45 462.99H539.51C625.56 462.99 696.38 397.75 705.2 314.03L705.26 313.96C706.44 302.39 706.41 290.74 705.19 279.21V279.22Z" fill="#B7B8AC"/>
<path d="M0 820.92C3.91 813.58 5.09 809.43 5.09 799.49V756.15C5.09 746.2 3.91 742.06 0 734.72V734.48C14.45 734.48 18.23 734.01 33.98 734.01C64.65 734.01 83.47 749.05 83.47 777.35C83.47 805.65 65.59 821.16 33.98 821.16H0V820.92ZM33.62 738.98C32.79 738.98 26.63 739.1 22.25 739.22V816.18H34.21C57.06 815.71 64.52 801.73 64.52 777.58C64.52 750.7 55.17 738.98 33.62 738.98Z" fill="#B7B8AC"/>
<path d="M91.1697 790.96C91.1697 772.84 106.92 758.75 124.44 758.75C141.96 758.75 157.83 772.72 157.83 790.96C157.83 809.2 142.08 822.93 124.44 822.93C106.8 822.93 90.9297 809.08 91.1697 790.96ZM140.78 790.96C140.78 775.57 134.98 763.49 124.44 763.49C113.9 763.49 108.1 775.57 108.1 790.96C108.1 806.35 113.9 818.31 124.44 818.31C134.98 818.31 140.78 806.23 140.78 790.96Z" fill="#B7B8AC"/>
<path d="M167.78 820.92C170.15 814.17 171.1 808.37 171.1 797.12V783.98C171.1 774.86 168.73 769.77 164.59 765.27V765.03L186.14 758.16V770.47L186.73 770.59C191.23 764.31 197.86 758.75 207.69 758.75C219.18 758.75 225.93 765.74 225.93 776.63V797.11C225.93 808.36 226.52 814.16 229.13 820.91V821.15H207.11V820.91C209.48 814.16 210.31 807.89 210.31 797.23V779.47C210.31 773.55 207.35 768.81 199.89 768.81C194.68 768.81 189.94 771.3 186.75 775.8V797.11C186.75 808.12 187.46 814.16 189.83 820.91V821.15H167.81V820.91L167.78 820.92Z" fill="#B7B8AC"/>
<path d="M238.82 810.03C238.82 795.7 257.29 789.19 271.74 786.23V781.85C271.74 772.85 268.54 769.18 259.78 769.18C254.21 769.18 248.18 770.6 242.73 773.56L241.19 771.9C246.87 764.68 256.58 758.76 268.31 758.76C282.28 758.76 287.49 766.93 287.49 777.47V806.72C287.49 810.51 288.79 812.88 292.58 812.88C294.95 812.88 296.96 812.05 298.86 810.04L300.52 811.46C298.51 815.84 294.01 822.71 284.53 822.71C277.07 822.71 273.16 818.45 272.22 813.12C268.31 818.33 261.44 822.95 253.27 822.95C245.1 822.95 238.82 818.21 238.82 810.04V810.03ZM262.03 813.22C266.17 813.22 269.73 811.44 271.74 809.55V790.6C261.32 793.21 253.03 798.18 253.03 805.4C253.03 810.14 256.46 813.21 262.03 813.21V813.22Z" fill="#B7B8AC"/>
<path d="M324.67 822.93C316.03 822.93 308.92 818.9 308.92 806.83V765.98H301.93V763.14L323.48 746.33H324.78V760.66H341.12V765.99H324.78V805.66C324.78 811.46 327.86 813.95 333.07 813.95C337.92 813.95 340.65 812.29 341.24 811.82L342.54 813.36C339.34 818.69 333.19 822.95 324.66 822.95L324.67 822.93Z" fill="#B7B8AC"/>
<path d="M400.45 804.34L402.11 805.64C398.32 815.47 389.68 822.93 376.3 822.93C359.01 822.93 347.76 810.38 347.76 792.03C347.76 772.02 361.38 758.76 377.24 758.76C393.1 758.76 403.05 772.73 401.99 786.59H363.63C364.1 803.17 372.75 810.51 384.71 810.51C391.1 810.51 396.31 808.5 400.46 804.35L400.45 804.34ZM363.75 781.84L386.48 781.37V778.41C386.48 768.11 383.16 763.49 377.13 763.49C369.91 763.49 364.7 771.31 363.75 781.84Z" fill="#B7B8AC"/>
<path d="M410.87 820.92C412.76 816.54 414.07 812.04 414.07 802.09V751.41C414.07 742.41 411.7 737.2 407.56 732.94V732.58L429.7 725.71V801.96C429.7 811.91 431 816.52 432.9 820.91V821.15H410.88V820.91L410.87 820.92Z" fill="#B7B8AC"/>
<path d="M444.62 820.92C446.51 816.54 447.82 812.04 447.82 802.09V751.41C447.82 742.41 445.45 737.2 441.31 732.94V732.58L463.45 725.71V801.96C463.45 811.91 464.75 816.52 466.65 820.91V821.15H444.63V820.91L444.62 820.92Z" fill="#B7B8AC"/>
<path d="M476.36 810.03C476.36 795.7 494.83 789.19 509.28 786.23V781.85C509.28 772.85 506.08 769.18 497.32 769.18C491.75 769.18 485.72 770.6 480.27 773.56L478.73 771.9C484.41 764.68 494.12 758.76 505.85 758.76C519.82 758.76 525.03 766.93 525.03 777.47V806.72C525.03 810.51 526.33 812.88 530.12 812.88C532.49 812.88 534.5 812.05 536.4 810.04L538.06 811.46C536.05 815.84 531.55 822.71 522.07 822.71C514.61 822.71 510.7 818.45 509.76 813.12C505.85 818.33 498.98 822.95 490.81 822.95C482.64 822.95 476.36 818.21 476.36 810.04V810.03ZM499.56 813.22C503.7 813.22 507.26 811.44 509.27 809.55V790.6C498.85 793.21 490.56 798.18 490.56 805.4C490.56 810.14 493.99 813.21 499.56 813.21V813.22Z" fill="#B7B8AC"/>
<path d="M574.75 820.92C578.66 813.58 579.84 809.43 579.84 799.49V756.15C579.84 746.2 578.66 742.06 574.75 734.72V734.48C589.2 734.48 592.98 734.01 608.73 734.01C639.4 734.01 658.23 749.05 658.23 777.35C658.23 805.65 640.35 821.16 608.73 821.16H574.75V820.92ZM608.38 738.98C607.55 738.98 601.39 739.1 597.01 739.22V816.18H608.97C631.82 815.71 639.28 801.73 639.28 777.58C639.28 750.7 629.93 738.98 608.38 738.98Z" fill="#B7B8AC"/>
<path d="M669.36 820.92C671.25 814.17 672.56 808.25 672.56 797.12V784.33C672.56 775.45 670.19 770.12 666.05 765.74V765.03L688.19 758.16V797.12C688.19 808.01 688.9 814.17 691.27 820.92V821.16H669.36V820.92ZM670.19 740.4C670.19 735.31 674.22 731.28 679.31 731.28C684.4 731.28 688.66 735.31 688.66 740.4C688.66 745.49 684.52 749.52 679.31 749.52C674.1 749.52 670.19 745.49 670.19 740.4Z" fill="#B7B8AC"/>
<path d="M757.81 734.48V734.72C754.38 739.1 753.43 746.56 756.98 756.27L774.15 803.04L789.31 761.95C794.05 748.92 792.03 740.04 787.42 734.72V734.48H808.26V734.72C802.93 740.17 800.09 746.8 796.89 755.8L772.5 821.87H763.15L738.76 755.56C734.97 745.38 732.25 739.58 727.51 734.72V734.48H757.82H757.81Z" fill="#B7B8AC"/>
<path d="M814.41 820.92C816.3 814.17 817.61 808.25 817.61 797.12V784.33C817.61 775.45 815.24 770.12 811.1 765.74V765.03L833.24 758.16V797.12C833.24 808.01 833.95 814.17 836.32 820.92V821.16H814.41V820.92ZM815.24 740.4C815.24 735.31 819.27 731.28 824.36 731.28C829.45 731.28 833.71 735.31 833.71 740.4C833.71 745.49 829.57 749.52 824.36 749.52C819.15 749.52 815.24 745.49 815.24 740.4Z" fill="#B7B8AC"/>
<path d="M897.89 804.34L899.55 805.64C895.76 815.47 887.12 822.93 873.74 822.93C856.45 822.93 845.2 810.38 845.2 792.03C845.2 772.02 858.82 758.76 874.68 758.76C890.54 758.76 900.49 772.73 899.43 786.59H861.07C861.54 803.17 870.19 810.51 882.15 810.51C888.54 810.51 893.75 808.5 897.9 804.35L897.89 804.34ZM861.18 781.84L883.91 781.37V778.41C883.91 768.11 880.59 763.49 874.56 763.49C867.34 763.49 862.13 771.31 861.18 781.84Z" fill="#B7B8AC"/>
<path d="M929.62 822.93C920.98 822.93 913.87 818.9 913.87 806.83V765.98H906.88V763.14L928.43 746.33H929.73V760.66H946.07V765.99H929.73V805.66C929.73 811.46 932.81 813.95 938.02 813.95C942.87 813.95 945.6 812.29 946.19 811.82L947.49 813.36C944.29 818.69 938.14 822.95 929.61 822.95L929.62 822.93Z" fill="#B7B8AC"/>
<path d="M957.33 820.92C959.58 814.17 960.53 808.37 960.53 797.12V783.98C960.53 774.86 958.16 769.77 954.02 765.27V765.03L975.57 758.16V773.55H975.81C981.26 766.21 988.01 757.57 998.07 758.75L996.53 777.46L995.11 777.58C991.79 775.57 986.35 773.79 983.39 773.79C981.38 773.79 978.54 775.57 976.17 778.64V797.11C976.17 808.12 976.88 814.16 979.25 820.91V821.15H957.34V820.91L957.33 820.92Z" fill="#B7B8AC"/>
<path d="M1003.62 790.96C1003.62 772.84 1019.37 758.75 1036.89 758.75C1054.41 758.75 1070.28 772.72 1070.28 790.96C1070.28 809.2 1054.53 822.93 1036.89 822.93C1019.25 822.93 1003.38 809.08 1003.62 790.96ZM1053.24 790.96C1053.24 775.57 1047.44 763.49 1036.9 763.49C1026.36 763.49 1020.56 775.57 1020.56 790.96C1020.56 806.35 1026.36 818.31 1036.9 818.31C1047.44 818.31 1053.24 806.23 1053.24 790.96Z" fill="#B7B8AC"/>
<path d="M263.04 918.6L255.23 936.52H249.09L273.82 881.04H281.63L306.27 936.52H300.13L292.32 918.6H263.03H263.04ZM287.77 908.16L277.77 885.17H277.59L276.54 887.59C273.5 894.71 270.52 901.57 267.59 908.16L265.05 913.93H290.22L287.76 908.16H287.77Z" fill="#B7B8AC"/>
<path d="M345.15 936.53L322.52 881.05H328.57L339.18 907.31L348.92 931.62H349.1L358.75 907.31L369.36 881.05H375.41L352.87 936.53H345.15Z" fill="#B7B8AC"/>
<path d="M417.34 936.53L394.71 881.05H400.76L411.37 907.31L421.11 931.62H421.29L430.94 907.31L441.55 881.05H447.6L425.06 936.53H417.34Z" fill="#B7B8AC"/>
<path d="M510.63 883.58C514.81 885.94 518.03 889.28 520.28 893.59C522.53 897.9 523.66 902.97 523.66 908.79C523.66 914.61 522.53 919.67 520.28 923.99C518.03 928.3 514.81 931.64 510.63 934C506.45 936.36 501.55 937.54 495.94 937.54C490.33 937.54 485.43 936.36 481.25 934C477.07 931.64 473.84 928.29 471.56 923.95C469.28 919.61 468.14 914.56 468.14 908.79C468.14 903.02 469.28 897.97 471.56 893.63C473.84 889.29 477.07 885.94 481.25 883.58C485.43 881.22 490.33 880.03 495.94 880.03C501.55 880.03 506.45 881.21 510.63 883.58ZM484.45 887.71C481.18 889.66 478.65 892.45 476.86 896.09C475.08 899.73 474.18 903.96 474.18 908.79C474.18 913.62 475.07 917.86 476.86 921.49C478.64 925.13 481.17 927.92 484.45 929.87C487.72 931.82 491.55 932.79 495.94 932.79C500.33 932.79 504.15 931.8 507.43 929.83C510.7 927.86 513.23 925.06 515.02 921.45C516.8 917.84 517.69 913.62 517.69 908.79C517.69 903.96 516.8 899.74 515.02 896.13C513.24 892.52 510.71 889.73 507.43 887.75C504.15 885.78 500.33 884.79 495.94 884.79C491.55 884.79 487.72 885.76 484.45 887.71Z" fill="#B7B8AC"/>
<path d="M590.2 882.56C593.8 884.25 596.59 886.57 598.58 889.53C600.57 892.49 601.68 895.84 601.91 899.58H595.95C595.48 895.06 593.6 891.46 590.29 888.79C586.99 886.12 582.76 884.78 577.62 884.78C573.35 884.78 569.65 885.74 566.53 887.66C563.4 889.58 561 892.35 559.34 895.96C557.67 899.57 556.84 903.84 556.84 908.78C556.84 913.72 557.67 917.99 559.34 921.6C561.01 925.21 563.39 927.98 566.49 929.9C569.59 931.82 573.24 932.78 577.45 932.78C582.54 932.78 586.78 931.42 590.17 928.69C593.56 925.96 595.61 922.29 596.31 917.66H602.27C601.8 921.66 600.52 925.15 598.41 928.14C596.31 931.13 593.45 933.44 589.86 935.08C586.26 936.72 582.13 937.53 577.45 937.53C572.01 937.53 567.29 936.37 563.29 934.06C559.28 931.75 556.2 928.44 554.04 924.12C551.88 919.81 550.79 914.69 550.79 908.77C550.79 902.85 551.87 897.73 554.04 893.42C556.2 889.11 559.3 885.8 563.34 883.48C567.37 881.17 572.14 880.01 577.64 880.01C582.43 880.01 586.63 880.85 590.23 882.54L590.2 882.56Z" fill="#B7B8AC"/>
<path d="M636.389 918.6L628.579 936.52H622.439L647.169 881.04H654.979L679.62 936.52H673.479L665.669 918.6H636.379H636.389ZM661.12 908.16L651.12 885.17H650.939L649.889 887.59C646.849 894.71 643.869 901.57 640.939 908.16L638.399 913.93H663.569L661.109 908.16H661.12Z" fill="#B7B8AC"/>
<path d="M718.59 885.64V936.53H712.89V885.64H690.7V881.04H740.87V885.64H718.59Z" fill="#B7B8AC"/>
<path d="M802.05 883.58C806.23 885.94 809.45 889.28 811.7 893.59C813.95 897.9 815.08 902.97 815.08 908.79C815.08 914.61 813.95 919.67 811.7 923.99C809.45 928.3 806.23 931.64 802.05 934C797.87 936.36 792.97 937.54 787.36 937.54C781.75 937.54 776.85 936.36 772.67 934C768.49 931.64 765.26 928.29 762.98 923.95C760.7 919.61 759.56 914.56 759.56 908.79C759.56 903.02 760.7 897.97 762.98 893.63C765.26 889.29 768.49 885.94 772.67 883.58C776.85 881.22 781.75 880.03 787.36 880.03C792.97 880.03 797.87 881.21 802.05 883.58ZM775.87 887.71C772.6 889.66 770.07 892.45 768.28 896.09C766.5 899.73 765.6 903.96 765.6 908.79C765.6 913.62 766.49 917.86 768.28 921.49C770.06 925.13 772.59 927.92 775.87 929.87C779.14 931.82 782.97 932.79 787.36 932.79C791.75 932.79 795.57 931.8 798.85 929.83C802.12 927.86 804.65 925.06 806.44 921.45C808.22 917.84 809.11 913.62 809.11 908.79C809.11 903.96 808.22 899.74 806.44 896.13C804.66 892.52 802.13 889.73 798.85 887.75C795.57 885.78 791.75 884.79 787.36 884.79C782.97 884.79 779.14 885.76 775.87 887.71Z" fill="#B7B8AC"/>
</svg>
