<svg width="994" height="152" viewBox="0 0 994 152" fill="none" xmlns="http://www.w3.org/2000/svg">
<path d="M129.363 69.06C126.043 37.55 99.3825 12.99 66.9925 12.99H4.86252C1.14252 12.99 -1.19748 17.01 0.642517 20.24L24.0225 61.29C26.9125 65.95 32.0725 69.05 37.9525 69.05H40.8825V47.11V41.12H61.9125V41.2C78.0125 41.94 91.2225 53.67 94.1925 69.08C94.6025 71.2 94.8225 73.38 94.8225 75.62C94.8225 77.86 94.5925 80.05 94.1825 82.18C91.2125 97.58 78.0025 109.3 61.9125 110.04V110.12H40.8825V104.13V82.18H37.9525C32.0725 82.18 26.9125 85.28 24.0225 89.94L0.642517 130.99C-1.19748 134.22 1.13252 138.24 4.86252 138.24H66.9925C99.3825 138.24 126.043 113.68 129.363 82.17L129.383 82.14C129.833 77.79 129.813 73.4 129.353 69.06H129.363Z" fill="#3D3F4A"/>
<path d="M229.709 67.9599C232.499 62.7199 233.349 59.7599 233.349 52.6599V21.7199C233.349 14.6199 232.499 11.6599 229.709 6.41992V6.24994C240.019 6.24994 242.729 5.90991 253.969 5.90991C275.869 5.90991 289.309 16.6499 289.309 36.8499C289.309 57.0499 276.539 68.1299 253.969 68.1299H229.709V67.9599ZM253.719 9.45993C253.129 9.45993 248.729 9.53991 245.599 9.62991V64.5799H254.139C270.459 64.2399 275.779 54.2699 275.779 37.0199C275.779 17.8299 269.099 9.45993 253.719 9.45993Z" fill="#3D3F4A"/>
<path d="M294.799 46.5701C294.799 33.6401 306.039 23.5801 318.559 23.5801C331.079 23.5801 342.399 33.5601 342.399 46.5701C342.399 59.5801 331.159 69.4001 318.559 69.4001C305.959 69.4001 294.639 59.5101 294.799 46.5701ZM330.229 46.5701C330.229 35.5801 326.089 26.9601 318.559 26.9601C311.029 26.9601 306.889 35.5801 306.889 46.5701C306.889 57.5601 311.029 66.1001 318.559 66.1001C326.089 66.1001 330.229 57.4801 330.229 46.5701Z" fill="#3D3F4A"/>
<path d="M349.499 67.9599C351.189 63.1399 351.869 58.9999 351.869 50.9699V41.5899C351.869 35.0799 350.179 31.4499 347.219 28.2299V28.0599L362.609 23.1599V31.9499L363.029 32.0299C366.239 27.5499 370.979 23.5799 377.989 23.5799C386.189 23.5799 391.009 28.5699 391.009 36.3499V50.9799C391.009 59.0099 391.429 63.1499 393.289 67.9699V68.14H377.569V67.9699C379.259 63.1499 379.849 58.6699 379.849 51.0599V38.3799C379.849 34.1499 377.739 30.7699 372.409 30.7699C368.689 30.7699 365.309 32.5499 363.029 35.7599V50.9799C363.029 58.8399 363.539 63.1499 365.229 67.9699V68.14H349.509V67.9699L349.499 67.9599Z" fill="#3D3F4A"/>
<path d="M400.219 60.1901C400.219 49.9601 413.409 45.3101 423.719 43.2001V40.0701C423.719 33.6501 421.439 31.0201 415.179 31.0201C411.209 31.0201 406.889 32.0301 403.009 34.1501L401.909 32.9701C405.969 27.8101 412.899 23.5901 421.269 23.5901C431.249 23.5901 434.969 29.4201 434.969 36.9501V57.83C434.969 60.54 435.899 62.2301 438.609 62.2301C440.299 62.2301 441.739 61.6401 443.089 60.2001L444.269 61.2101C442.829 64.3401 439.619 69.2401 432.859 69.2401C427.529 69.2401 424.739 66.2001 424.069 62.3901C421.279 66.1101 416.379 69.4101 410.539 69.4101C404.699 69.4101 400.229 66.0301 400.229 60.2001L400.219 60.1901ZM416.789 62.4701C419.749 62.4701 422.289 61.2001 423.719 59.8501V46.3201C416.279 48.1801 410.359 51.7301 410.359 56.8901C410.359 60.2701 412.809 62.4701 416.779 62.4701H416.789Z" fill="#3D3F4A"/>
<path d="M461.519 69.3999C455.349 69.3999 450.279 66.5299 450.279 57.8999V28.7299H445.289V26.7L460.679 14.7H461.609V24.93H473.279V28.7299H461.609V57.05C461.609 61.19 463.809 62.9699 467.529 62.9699C470.999 62.9699 472.939 61.79 473.359 61.45L474.289 62.55C472.009 66.35 467.609 69.3999 461.519 69.3999Z" fill="#3D3F4A"/>
<path d="M515.619 56.1301L516.799 57.0601C514.089 64.0801 507.919 69.4001 498.369 69.4001C486.029 69.4001 477.999 60.4401 477.999 47.3401C477.999 33.0501 487.719 23.5801 499.049 23.5801C510.379 23.5801 517.479 33.5601 516.719 43.4501H489.329C489.669 55.2901 495.839 60.5301 504.379 60.5301C508.939 60.5301 512.659 59.0901 515.619 56.1301ZM489.409 40.0701L505.639 39.7301V37.6201C505.639 30.2601 503.269 26.9701 498.959 26.9701C493.799 26.9701 490.079 32.5501 489.409 40.0701Z" fill="#3D3F4A"/>
<path d="M523.059 67.96C524.409 64.83 525.339 61.62 525.339 54.52V18.34C525.339 11.92 523.649 8.19999 520.689 5.14999V4.89999L536.499 0V54.44C536.499 61.54 537.429 64.84 538.779 67.97V68.14H523.059V67.97V67.96Z" fill="#3D3F4A"/>
<path d="M547.159 67.96C548.509 64.83 549.439 61.62 549.439 54.52V18.34C549.439 11.92 547.749 8.19999 544.789 5.14999V4.89999L560.599 0V54.44C560.599 61.54 561.529 64.84 562.879 67.97V68.14H547.159V67.97V67.96Z" fill="#3D3F4A"/>
<path d="M569.809 60.1901C569.809 49.9601 582.999 45.3101 593.309 43.2001V40.0701C593.309 33.6501 591.029 31.0201 584.769 31.0201C580.799 31.0201 576.479 32.0301 572.599 34.1501L571.499 32.9701C575.559 27.8101 582.489 23.5901 590.859 23.5901C600.839 23.5901 604.559 29.4201 604.559 36.9501V57.83C604.559 60.54 605.489 62.2301 608.199 62.2301C609.889 62.2301 611.329 61.6401 612.679 60.2001L613.859 61.2101C612.419 64.3401 609.209 69.2401 602.449 69.2401C597.119 69.2401 594.329 66.2001 593.659 62.3901C590.869 66.1101 585.969 69.4101 580.129 69.4101C574.289 69.4101 569.819 66.0301 569.819 60.2001L569.809 60.1901ZM586.379 62.4701C589.339 62.4701 591.879 61.2001 593.309 59.8501V46.3201C585.869 48.1801 579.949 51.7301 579.949 56.8901C579.949 60.2701 582.399 62.4701 586.369 62.4701H586.379Z" fill="#3D3F4A"/>
<path d="M640.059 67.9599C642.849 62.7199 643.699 59.7599 643.699 52.6599V21.7199C643.699 14.6199 642.849 11.6599 640.059 6.41992V6.24994C650.369 6.24994 653.079 5.90991 664.319 5.90991C686.219 5.90991 699.659 16.6499 699.659 36.8499C699.659 57.0499 686.889 68.1299 664.319 68.1299H640.059V67.9599ZM664.069 9.45993C663.479 9.45993 659.079 9.53991 655.949 9.62991V64.5799H664.489C680.809 64.2399 686.129 54.2699 686.129 37.0199C686.129 17.8299 679.449 9.45993 664.069 9.45993Z" fill="#3D3F4A"/>
<path d="M707.609 67.96C708.959 63.14 709.889 58.91 709.889 50.97V41.84C709.889 35.5 708.199 31.7 705.239 28.57V28.06L721.049 23.16V50.97C721.049 58.75 721.559 63.14 723.249 67.96V68.13H707.609V67.96ZM708.199 10.48C708.199 6.84998 711.069 3.96997 714.709 3.96997C718.349 3.96997 721.389 6.83998 721.389 10.48C721.389 14.12 718.429 16.99 714.709 16.99C710.989 16.99 708.199 14.12 708.199 10.48Z" fill="#3D3F4A"/>
<path d="M770.759 6.25V6.41998C768.309 9.54998 767.629 14.87 770.169 21.81L782.429 55.2L793.249 25.86C796.629 16.56 795.189 10.22 791.899 6.41998V6.25H806.779V6.41998C802.979 10.31 800.949 15.04 798.659 21.47L781.239 68.64H774.559L757.149 21.3C754.439 14.03 752.499 9.88998 749.119 6.41998V6.25H770.759Z" fill="#3D3F4A"/>
<path d="M811.169 67.96C812.519 63.14 813.449 58.91 813.449 50.97V41.84C813.449 35.5 811.759 31.7 808.799 28.57V28.06L824.609 23.16V50.97C824.609 58.75 825.119 63.14 826.809 67.96V68.13H811.169V67.96ZM811.759 10.48C811.759 6.84998 814.629 3.96997 818.269 3.96997C821.909 3.96997 824.949 6.83998 824.949 10.48C824.949 14.12 821.989 16.99 818.269 16.99C814.549 16.99 811.759 14.12 811.759 10.48Z" fill="#3D3F4A"/>
<path d="M870.768 56.1301L871.948 57.0601C869.238 64.0801 863.068 69.4001 853.518 69.4001C841.178 69.4001 833.148 60.4401 833.148 47.3401C833.148 33.0501 842.868 23.5801 854.198 23.5801C865.528 23.5801 872.628 33.5601 871.868 43.4501H844.478C844.818 55.2901 850.988 60.5301 859.528 60.5301C864.088 60.5301 867.808 59.0901 870.768 56.1301ZM844.558 40.0701L860.788 39.7301V37.6201C860.788 30.2601 858.418 26.9701 854.108 26.9701C848.948 26.9701 845.228 32.5501 844.558 40.0701Z" fill="#3D3F4A"/>
<path d="M893.429 69.3999C887.259 69.3999 882.189 66.5299 882.189 57.8999V28.7299H877.199V26.7L892.589 14.7H893.519V24.93H905.189V28.7299H893.519V57.05C893.519 61.19 895.719 62.9699 899.439 62.9699C902.909 62.9699 904.849 61.79 905.269 61.45L906.199 62.55C903.919 66.35 899.519 69.3999 893.429 69.3999Z" fill="#3D3F4A"/>
<path d="M913.209 67.9599C914.819 63.1399 915.489 58.9999 915.489 50.9699V41.5899C915.489 35.0799 913.799 31.4499 910.839 28.2299V28.0599L926.229 23.1599V34.1499H926.399C930.289 28.9099 935.109 22.7399 942.289 23.5799L941.189 36.9399L940.179 37.0199C937.809 35.5799 933.919 34.3099 931.809 34.3099C930.369 34.3099 928.339 35.5799 926.649 37.7799V50.9699C926.649 58.8299 927.159 63.1399 928.849 67.9599V68.1299H913.209V67.9599Z" fill="#3D3F4A"/>
<path d="M946.259 46.5701C946.259 33.6401 957.499 23.5801 970.019 23.5801C982.539 23.5801 993.859 33.5601 993.859 46.5701C993.859 59.5801 982.619 69.4001 970.019 69.4001C957.419 69.4001 946.099 59.5101 946.259 46.5701ZM981.689 46.5701C981.689 35.5801 977.549 26.9601 970.019 26.9601C962.489 26.9601 958.349 35.5801 958.349 46.5701C958.349 57.5601 962.489 66.1001 970.019 66.1001C977.549 66.1001 981.689 57.4801 981.689 46.5701Z" fill="#3D3F4A"/>
<path d="M239.669 137.71L234.099 150.51H229.719L247.379 110.9H252.949L270.549 150.51H266.169L260.599 137.71H239.689H239.669ZM257.319 130.25L250.179 113.84H250.049L249.299 115.56C247.129 120.64 244.999 125.54 242.909 130.25L241.089 134.37H259.059L257.309 130.25H257.319Z" fill="#3D3F4A"/>
<path d="M298.289 150.5L282.129 110.89H286.449L294.029 129.64L300.979 147H301.109L307.999 129.64L315.579 110.89H319.899L303.809 150.5H298.299H298.289Z" fill="#3D3F4A"/>
<path d="M349.829 150.5L333.669 110.89H337.989L345.569 129.64L352.519 147H352.649L359.539 129.64L367.119 110.89H371.439L355.349 150.5H349.839H349.829Z" fill="#3D3F4A"/>
<path d="M416.439 112.7C419.419 114.39 421.719 116.77 423.329 119.85C424.939 122.93 425.739 126.55 425.739 130.7C425.739 134.85 424.939 138.47 423.329 141.55C421.719 144.63 419.429 147.01 416.439 148.7C413.449 150.39 409.959 151.23 405.949 151.23C401.939 151.23 398.449 150.39 395.459 148.7C392.479 147.01 390.169 144.62 388.539 141.52C386.909 138.42 386.099 134.82 386.099 130.7C386.099 126.58 386.909 122.98 388.539 119.88C390.169 116.78 392.469 114.39 395.459 112.7C398.439 111.01 401.939 110.17 405.949 110.17C409.959 110.17 413.449 111.01 416.439 112.7ZM397.749 115.65C395.409 117.04 393.609 119.04 392.329 121.63C391.059 124.23 390.419 127.25 390.419 130.7C390.419 134.15 391.059 137.17 392.329 139.77C393.599 142.37 395.409 144.36 397.749 145.75C400.089 147.14 402.819 147.84 405.949 147.84C409.079 147.84 411.809 147.14 414.149 145.73C416.489 144.32 418.289 142.33 419.569 139.75C420.839 137.17 421.479 134.16 421.479 130.71C421.479 127.26 420.839 124.25 419.569 121.67C418.299 119.09 416.489 117.1 414.149 115.69C411.809 114.28 409.079 113.58 405.949 113.58C402.819 113.58 400.079 114.28 397.749 115.67V115.65Z" fill="#3D3F4A"/>
<path d="M473.239 111.97C475.809 113.18 477.799 114.84 479.219 116.95C480.639 119.06 481.429 121.46 481.599 124.13H477.339C477.009 120.9 475.659 118.34 473.299 116.42C470.939 114.51 467.919 113.55 464.249 113.55C461.199 113.55 458.559 114.24 456.329 115.61C454.099 116.98 452.389 118.96 451.199 121.54C450.009 124.12 449.419 127.17 449.419 130.69C449.419 134.21 450.019 137.26 451.199 139.84C452.389 142.42 454.089 144.39 456.299 145.77C458.509 147.14 461.119 147.83 464.129 147.83C467.759 147.83 470.789 146.86 473.209 144.91C475.629 142.96 477.089 140.34 477.589 137.04H481.849C481.519 139.9 480.599 142.39 479.089 144.52C477.589 146.65 475.549 148.3 472.989 149.47C470.419 150.64 467.469 151.22 464.129 151.22C460.249 151.22 456.879 150.4 454.019 148.74C451.159 147.09 448.959 144.73 447.409 141.65C445.859 138.57 445.089 134.92 445.089 130.69C445.089 126.46 445.859 122.81 447.409 119.73C448.949 116.65 451.169 114.29 454.049 112.64C456.929 110.99 460.329 110.16 464.259 110.16C467.679 110.16 470.679 110.76 473.249 111.97H473.239Z" fill="#3D3F4A"/>
<path d="M506.219 137.71L500.649 150.51H496.269L513.929 110.9H519.499L537.099 150.51H532.719L527.149 137.71H506.239H506.219ZM523.879 130.25L516.739 113.84H516.609L515.859 115.56C513.689 120.64 511.559 125.54 509.469 130.25L507.649 134.37H525.619L523.869 130.25H523.879Z" fill="#3D3F4A"/>
<path d="M564.909 114.17V150.5H560.839V114.17H544.999V110.89H580.819V114.17H564.919H564.909Z" fill="#3D3F4A"/>
<path d="M624.499 112.7C627.479 114.39 629.779 116.77 631.389 119.85C632.999 122.93 633.799 126.55 633.799 130.7C633.799 134.85 632.999 138.47 631.389 141.55C629.779 144.63 627.489 147.01 624.499 148.7C621.509 150.39 618.019 151.23 614.009 151.23C609.999 151.23 606.509 150.39 603.519 148.7C600.539 147.01 598.229 144.62 596.599 141.52C594.969 138.42 594.159 134.82 594.159 130.7C594.159 126.58 594.969 122.98 596.599 119.88C598.229 116.78 600.529 114.39 603.519 112.7C606.499 111.01 609.999 110.17 614.009 110.17C618.019 110.17 621.509 111.01 624.499 112.7ZM605.809 115.65C603.469 117.04 601.669 119.04 600.389 121.63C599.119 124.23 598.479 127.25 598.479 130.7C598.479 134.15 599.119 137.17 600.389 139.77C601.659 142.37 603.469 144.36 605.809 145.75C608.149 147.14 610.879 147.84 614.009 147.84C617.139 147.84 619.869 147.14 622.209 145.73C624.549 144.32 626.349 142.33 627.629 139.75C628.899 137.17 629.539 134.16 629.539 130.71C629.539 127.26 628.899 124.25 627.629 121.67C626.359 119.09 624.549 117.1 622.209 115.69C619.869 114.28 617.139 113.58 614.009 113.58C610.879 113.58 608.139 114.28 605.809 115.67V115.65Z" fill="#3D3F4A"/>
</svg>
