<svg width="1080" height="1080" viewBox="0 0 1080 1080" fill="none" xmlns="http://www.w3.org/2000/svg">
<path d="M851.94 508.31H851.96C835.91 355.9 706.99 237.14 550.33 237.14H249.85C231.85 237.14 220.55 256.57 229.46 272.22L342.55 470.77C356.52 493.3 381.47 508.3 409.92 508.3H424.11V402.17V373.18H525.8V373.57C603.65 377.13 667.58 433.89 681.9 508.4C683.87 518.64 684.95 529.2 684.95 540.02C684.95 550.84 683.83 561.46 681.85 571.74H681.88C667.51 646.2 603.61 702.91 525.8 706.46V706.85H424.11V677.86V571.72H409.92C381.47 571.72 356.52 586.72 342.55 609.25L229.46 807.8C220.55 823.44 231.85 842.88 249.85 842.88H550.34C707 842.88 835.92 724.11 851.97 571.71L852.08 571.59C854.23 550.53 854.18 529.32 851.95 508.33L851.94 508.31Z" fill="currentColor"/>
</svg>
